<svg xmlns="http://www.w3.org/2000/svg" width="54.25" height="54.229" viewBox="0 0 54.25 54.229"><g transform="translate(-841.875 -1607.872)"><rect width="54" height="54" transform="translate(842 1608)" fill="none"/><g transform="translate(842 2119.55)"><path d="M40.834-511.534a18.959,18.959,0,0,0-4.938,1.171A21.132,21.132,0,0,0,23.1-495.3a17.476,17.476,0,0,0-.063,5.539,12.143,12.143,0,0,0,2.152,4.906,7.356,7.356,0,0,1,.559.791c0,.032-2.195,2.247-4.885,4.938l-4.875,4.875-.58-.58a2.079,2.079,0,0,0-.791-.58,7.209,7.209,0,0,0-1.2.369l-1,.359-6.2,6.2C2.8-465.066,0-462.2,0-462.111a46.04,46.04,0,0,0,4.537,4.537c.084,0,2.954-2.8,6.362-6.2l6.2-6.2.359-1a7.212,7.212,0,0,0,.369-1.2,2.3,2.3,0,0,0-.58-.791l-.58-.58,4.906-4.906,4.9-4.9.3.232a12.478,12.478,0,0,0,5.328,2.522,18.99,18.99,0,0,0,5.413-.011,21,21,0,0,0,13.348-9.137c4.252-6.468,4.178-14-.158-18.412a11.47,11.47,0,0,0-8.125-3.366C41.826-511.555,41.034-511.555,40.834-511.534Zm3.229,1.045a10.187,10.187,0,0,1,7.9,5.782,11.639,11.639,0,0,1,1.076,5.761c-.443,8.483-8.082,16.534-16.65,17.536a11.431,11.431,0,0,1-9.412-2.849,10.814,10.814,0,0,1-2.891-5.022,9.429,9.429,0,0,1-.285-2.954,12.628,12.628,0,0,1,.781-5.012,20.271,20.271,0,0,1,6.89-9.528,18.337,18.337,0,0,1,8.2-3.651c.433-.063.907-.137,1.055-.158A16.37,16.37,0,0,1,44.063-510.49ZM16.692-471.6a1.362,1.362,0,0,1-.232.517c-.095,0-3-2.944-2.954-2.986a5.489,5.489,0,0,1,.528-.211l.475-.158,1.171,1.161,1.171,1.161Zm-2.4-.222,1.688,1.688L10.256-464.4l-5.719,5.719L2.828-460.4l-1.72-1.709,5.7-5.7c3.134-3.134,5.719-5.7,5.751-5.7S13.369-472.747,14.3-471.819Z" transform="translate(0 0)" fill="#333" stroke="#333" stroke-width="0.25"/><path d="M247.829-494.706a18.814,18.814,0,0,0-14.458,13.68,15.649,15.649,0,0,0-.309,5.257c.96,6.675,7.346,10.321,14.586,8.306A19.223,19.223,0,0,0,260.3-479.971a14.471,14.471,0,0,0,.235-7.272,10.091,10.091,0,0,0-8.135-7.464A18.241,18.241,0,0,0,247.829-494.706Zm1.237,1.066.256.277-2.26,2.26-2.26,2.26-1.3-1.311c-1.525-1.525-1.557-1.311.288-2.207A16.3,16.3,0,0,1,248.7-493.9C248.767-493.906,248.927-493.789,249.065-493.64Zm4.222.117a10.534,10.534,0,0,1,1.567.586,8.912,8.912,0,0,1,1.994,1.354,12.149,12.149,0,0,1-1.066,1.141l-1.066,1.066-2.026-2.026-2.015-2.015.235-.256c.213-.235.288-.245.853-.181A9.474,9.474,0,0,1,253.288-493.523Zm-1.525,7.1-2.271,2.271-1.973-1.973a27.5,27.5,0,0,1-1.973-2.079c0-.053.992-1.1,2.207-2.314l2.218-2.218L252-490.708l2.026,2.026Zm-9.02-3.2a12.775,12.775,0,0,1,1.311,1.418,31.6,31.6,0,0,1-2.218,2.324l-2.207,2.207-1.365-1.365a18.006,18.006,0,0,1-1.354-1.439,15.371,15.371,0,0,1,2.026-2.42,14.772,14.772,0,0,1,2.4-2.015A11.829,11.829,0,0,1,242.743-489.62Zm15.429-.522a10.073,10.073,0,0,1,1.727,4.5c.053.469.032.565-.192.768l-.256.235-2.015-2.015-2.026-2.026,1.066-1.066a12.147,12.147,0,0,1,1.141-1.066A3.793,3.793,0,0,1,258.171-490.143Zm-1.407,4.2,2,2-2.207,2.207a31.6,31.6,0,0,1-2.324,2.218,27.49,27.49,0,0,1-2.079-1.973l-1.973-1.973,2.239-2.239c1.226-1.237,2.26-2.239,2.292-2.239S255.665-487.04,256.764-485.942Zm-9.905.437,1.994,1.994-2.271,2.271-2.26,2.26L242.295-481l-2.026-2.026,2.239-2.239c1.226-1.237,2.26-2.239,2.292-2.239S245.76-486.613,246.858-485.5ZM236.7-480.738l-2.239,2.239-.267-.267c-.256-.256-.256-.288-.149-.96a17.13,17.13,0,0,1,1.845-5.161l.405-.725,1.322,1.311,1.322,1.322Zm23-2.271c.213.235.224.277.085,1.077a16.077,16.077,0,0,1-.97,3.305,12.061,12.061,0,0,1-1.3,2.42,17.106,17.106,0,0,1-1.354-1.279l-1.279-1.28L257.116-481c1.226-1.237,2.26-2.239,2.3-2.239A.946.946,0,0,1,259.7-483.009Zm-8.359,6.5-2.271,2.271-2.026-2.026-2.026-2.026,2.26-2.26,2.271-2.271,2.026,2.026,2.026,2.026Zm-9.7-3.774,1.994,1.994-2.239,2.239-2.239,2.239-2.026-2.026-2.026-2.026,2.207-2.207c1.216-1.226,2.239-2.218,2.271-2.218S240.535-481.389,241.634-480.28Zm15.322,4.937a14.341,14.341,0,0,1-1.941,2.356,15.74,15.74,0,0,1-2.506,2.111,18.013,18.013,0,0,1-1.439-1.354l-1.365-1.365,2.26-2.26,2.271-2.271,1.354,1.354A17.982,17.982,0,0,1,256.956-475.343ZM246.133-471.3l-2.239,2.239-2.026-2.026-2.026-2.026,2.239-2.239,2.239-2.239,2.026,2.026,2.026,2.026Zm-8.743-.746a12.151,12.151,0,0,1-1.141,1.066,8.912,8.912,0,0,1-1.354-1.994,11.587,11.587,0,0,1-.917-3.049c-.075-.554-.053-.65.171-.885l.245-.267,2.026,2.037,2.037,2.026Zm14.053,1.9c-.107.085-.768.427-1.471.768a15.914,15.914,0,0,1-4.148,1.375c-.725.128-.746.128-1.013-.139l-.277-.277,2.239-2.239,2.239-2.239,1.311,1.311C251.507-470.406,251.614-470.278,251.443-470.151Zm-10.236-.213,2,2-.277.256c-.256.245-.288.245-1.12.117a10.085,10.085,0,0,1-2.879-.917,8.939,8.939,0,0,1-1.919-1.311,25.4,25.4,0,0,1,2.132-2.154C239.181-472.368,240.109-471.462,241.207-470.364Z" transform="translate(-208.69 -14.919)" fill="#333" stroke="#333" stroke-width="0.25"/><path d="M69.306-138.377c-1.45,1.45-2.666,2.719-2.687,2.826a.58.58,0,0,0,.437.629c.171,0,5.374-5.1,5.576-5.47a.418.418,0,0,0-.405-.608C71.993-141,71.428-140.488,69.306-138.377Z" transform="translate(-59.507 -331.503)" fill="#333" stroke="#333" stroke-width="0.25"/><path d="M40.4-84.243A14.529,14.529,0,0,0,38-81.758c0,.341.139.5.416.5.224,0,.544-.267,1.493-1.216.768-.778,1.184-1.29,1.162-1.407A.537.537,0,0,0,40.4-84.243Z" transform="translate(-33.948 -382.288)" fill="#333" stroke="#333" stroke-width="0.25"/><path d="M305.762-213.711a5.359,5.359,0,0,0-2.42,1.535l-.938.885-5.918,2.751c-3.252,1.514-6.046,2.868-6.206,3.028a2.855,2.855,0,0,0-.522,2.73,2.883,2.883,0,0,0,2.548,1.77h.554v.586a2.54,2.54,0,0,0,.928,1.973,2.363,2.363,0,0,0,1.77.64h.5v.554a2.822,2.822,0,0,0,1.642,2.484,3.413,3.413,0,0,0,.992.192l.565.011v.544a2.893,2.893,0,0,0,1.77,2.516,2.881,2.881,0,0,0,2.74-.522c.149-.16,1.546-2.89,3.092-6.067l2.826-5.779.864-.938a5.879,5.879,0,0,0,1.738-3.209,5.167,5.167,0,0,0-3.668-5.715A5.886,5.886,0,0,0,305.762-213.711Zm3.177,1.077a4.219,4.219,0,0,1,2.1,5.512,3.279,3.279,0,0,1-.448.8c-.128.1-.672-.395-3.071-2.794-2.122-2.122-2.89-2.953-2.815-3.049a4.568,4.568,0,0,1,1.9-.768A4.85,4.85,0,0,1,308.939-212.634Zm-2,4.212c2.783,2.783,2.922,2.943,2.74,3.113s-.331.043-3.167-2.794c-2.292-2.292-2.953-3.007-2.858-3.113a.393.393,0,0,1,.235-.139C303.949-211.355,305.325-210.033,306.935-208.423Zm-2.879-.533,1.226,1.226-4.318,4.329c-2.378,2.378-4.457,4.393-4.628,4.489a2.246,2.246,0,0,1-.821.16,1.733,1.733,0,0,1-1.685-2.186c.1-.395.661-.992,4.5-4.851,2.41-2.41,4.414-4.393,4.446-4.393S303.384-209.627,304.056-208.956Zm-7.091,3.145c-1.93,1.941-3.679,3.593-3.881,3.689a2.079,2.079,0,0,1-1.823-.171,2.143,2.143,0,0,1-.746-1.429,2.222,2.222,0,0,1,.213-.757c.213-.437.224-.448,4.926-2.644,2.6-1.2,4.745-2.2,4.777-2.2S298.9-207.74,296.965-205.81Zm10.321.085,1.247,1.258-4.393,4.382c-3.892,3.881-4.457,4.393-4.862,4.51a1.836,1.836,0,0,1-2.079-.885,2.376,2.376,0,0,1-.064-1.6c.117-.224,8.733-8.924,8.839-8.924C306.007-206.983,306.593-206.418,307.286-205.725Zm-.128,4.841c-.458.96-1.557,3.209-2.431,5-1.6,3.252-1.6,3.263-2.047,3.433a1.572,1.572,0,0,1-1.461-.021,1.808,1.808,0,0,1-.949-2.111c.064-.352.544-.874,3.87-4.222,2.09-2.09,3.806-3.806,3.828-3.806S307.617-201.833,307.159-200.884Z" transform="translate(-259.309 -266.478)" fill="#333" stroke="#333" stroke-width="0.25"/></g></g></svg>