<svg xmlns="http://www.w3.org/2000/svg" width="54" height="54" viewBox="0 0 54 54"><g transform="translate(-665 -1607)"><rect width="54" height="54" transform="translate(665 1607)" fill="none"/><g transform="translate(649 2103)"><path d="M16-469.045v26.955h7.188v-12.579h4.324l.9-4.492.9-4.492h1.033c.988,0,1.045.011,1.1.247.034.146.809,5,1.741,10.8s1.7,10.569,1.73,10.591a3.555,3.555,0,0,0,.91-.09c.831-.135.854-.135.8-.427-.135-.629-.741-4.526-.741-4.728s.09-.225,2.4-.225H40.7l.056.6c.045.314.146,1.539.247,2.718s.18,2.134.191,2.134a9.549,9.549,0,0,0,1.7-.18c.056-.056-.168-3.414-.326-4.74l-.067-.528h4.953v5.391h1.8v-5.391H54.2l-.067.528c-.157,1.325-.382,4.683-.326,4.74a9.549,9.549,0,0,0,1.7.18c.011,0,.1-.966.191-2.134s.2-2.4.247-2.718l.056-.6h2.415c2.3,0,2.4.011,2.4.213s-.606,4.088-.741,4.74c-.056.292-.034.292.8.427a3.555,3.555,0,0,0,.91.09c.022-.022.809-4.785,1.73-10.591s1.707-10.647,1.741-10.782c.045-.213.146-.247,1.033-.292a3.449,3.449,0,0,0,3.19-1.909,2.553,2.553,0,0,0,.382-1.662,2.553,2.553,0,0,0-.382-1.662,3.492,3.492,0,0,0-1.7-1.617c-.46-.225-.708-.258-2.617-.292-2.1-.045-2.123-.045-2.055-.281a19.915,19.915,0,0,0,.258-7.21,16.962,16.962,0,0,0-4.56-8.861,17.007,17.007,0,0,0-21.8-2.3,20.725,20.725,0,0,0-4.594,4.594,17.91,17.91,0,0,0-2.662,6.57,19.36,19.36,0,0,0,.258,7.21l.056.258H23.188V-496H16Zm5.391,0v25.158H17.8V-494.2h3.594Zm28.056-21.283a15.622,15.622,0,0,1,6.683,3.122l.55.449-3.021,3.021c-1.651,1.651-3.044,3.01-3.089,3.01a17.667,17.667,0,0,1-2.089-2.763,19.86,19.86,0,0,1-2.662-6.829l-.067-.326,1.381.067A19.258,19.258,0,0,1,49.447-490.328Zm-5.436.079c.022.079.157.651.292,1.269a21.187,21.187,0,0,0,4.773,9.333l.213.281L47.919-478l-1.37,1.37-5.054-5.054-5.065-5.054.427-.382a15.766,15.766,0,0,1,5.986-3.032C43.854-490.418,43.966-490.429,44.011-490.25Zm-.1,16.263a18.025,18.025,0,0,1-1.426,1.348,6.011,6.011,0,0,1-.786-.606,21.642,21.642,0,0,0-9.019-4.4,7.064,7.064,0,0,1-1.112-.281,10.948,10.948,0,0,1,.932-3.358,16.133,16.133,0,0,1,2.078-3.5l.55-.674,5.065,5.065,5.065,5.065ZM59.3-483.7a13.517,13.517,0,0,1,1.673,3.4,14.047,14.047,0,0,1,.82,4.38l.067,1.381-.326-.067a20.527,20.527,0,0,1-6.84-2.662,18.594,18.594,0,0,1-2.752-2.089c0-.045,1.348-1.426,3.01-3.089l3-3.01.382.427C58.533-484.791,58.971-484.2,59.3-483.7Zm-8.176,6.042a21.69,21.69,0,0,0,9.3,4.627c.494.112.966.213,1.045.236.168.045.135.314-.157,1.359l-.168.6H52.333l-2.246-2.246-2.246-2.246,1.348-1.348a18.025,18.025,0,0,1,1.426-1.348A1.887,1.887,0,0,1,51.12-477.659Zm-18.329,1.887a19.2,19.2,0,0,1,5.885,2.538,16.539,16.539,0,0,1,2.482,1.921.729.729,0,0,1-.191.27c-.168.191-.46.2-4.594.2H31.96l-.18-.6a17.58,17.58,0,0,1-.505-3.762c0-.9.011-.921.258-.876C31.668-476.042,32.24-475.907,32.791-475.772Zm15.387,3.358,1.572,1.572H46.92c-2.774,0-2.842,0-2.965-.236s0-.359,1.2-1.572c.73-.741,1.359-1.337,1.393-1.337S47.313-473.279,48.178-472.414Zm19.1,3.661a1.586,1.586,0,0,1,.775,1.505,1.586,1.586,0,0,1-.775,1.5l-.3.236-21.9.034-21.89.022v-3.594l21.89.022,21.9.034Zm-39.849,5.346c-.022.146-.348,1.763-.708,3.594l-.674,3.347H23.188v-7.188h4.29Zm7.615.64a16.738,16.738,0,0,0,3.774,2.639l.932.483.135,1.561c.067.865.135,1.775.135,2.033l.011.483H34.543l-.067-.371c-.034-.191-.337-2.01-.663-4.043l-.584-3.673h.438C34.06-463.654,34.206-463.564,35.048-462.767Zm4.459.034a5.182,5.182,0,0,1,.034.955,21.142,21.142,0,0,1-2.437-1.561l-.382-.314H39.44Zm7.94.887v1.819l-1.426-.067c-1.853-.079-4.111-.539-4.481-.91a4.622,4.622,0,0,1-.213-1.393l-.079-1.258h6.2Zm7.952-1.4c-.034.382-.1.449-1.011,1a16.425,16.425,0,0,1-4.829,1.9l-.314.067v-3.369h6.188Zm7.48,3.268c-.326,2.033-.629,3.852-.663,4.043l-.067.371H56.657v-.292c0-.168.1-1.584.236-3.167l.236-2.864.921-.876.91-.876,2.257-.011h2.246Zm-7.862,1.932-.2,2.482H49.245v-2.909l.651-.124a20.439,20.439,0,0,0,4.2-1.449,9.752,9.752,0,0,1,1.078-.505C55.2-460.543,55.118-459.42,55.017-458.05Zm-11.782-.562a20.618,20.618,0,0,0,2.673.314l1.539.067v2.662H41.866l-.079-1.157c-.045-.629-.1-1.393-.146-1.7-.067-.539-.056-.55.2-.483C41.989-458.869,42.618-458.735,43.236-458.611Zm-2.875,6.66c.067,1.011.157,2.022.191,2.246l.067.427H35.542l-.045-.258c-.135-.606-.629-3.785-.629-4,0-.236.034-.236,2.673-.236h2.684Zm7.087.427v2.246H44.92c-1.393,0-2.527-.011-2.527-.034s-.079-.887-.168-1.932-.168-2.044-.168-2.224v-.3h5.391Zm7.188-1.943c0,.18-.079,1.168-.168,2.224s-.168,1.921-.168,1.932-1.134.034-2.527.034H49.245v-4.492h5.391Zm7.188-.112c0,.2-.517,3.56-.629,4.043l-.045.258H56.073l.067-.427c.034-.225.124-1.235.191-2.246l.135-1.819H59.15C61.61-453.77,61.824-453.759,61.824-453.579Z" fill="#333"/></g></g></svg>