<svg xmlns="http://www.w3.org/2000/svg" width="62" height="56.833" viewBox="0 0 62 56.833"><g transform="translate(0 -21.334)"><g transform="translate(0 21.334)"><path d="M61.9,60.526a1.256,1.256,0,0,0,.041-.822l-5.107-16.6V27.792a6.466,6.466,0,0,0-6.458-6.458H11.625a6.466,6.466,0,0,0-6.458,6.458V43.106L.059,59.7a1.258,1.258,0,0,0,.041.822,3.827,3.827,0,0,0-.1.85v15.5a1.292,1.292,0,0,0,1.292,1.292H6.458A1.292,1.292,0,0,0,7.75,76.875V73h46.5v3.875a1.292,1.292,0,0,0,1.292,1.292h5.167A1.292,1.292,0,0,0,62,76.875v-15.5A3.834,3.834,0,0,0,61.9,60.526ZM7.75,27.792a3.88,3.88,0,0,1,3.875-3.875h38.75a3.88,3.88,0,0,1,3.875,3.875V42H50.739l-1.2-4.815a3.874,3.874,0,0,0-3.761-2.935H37.458a3.88,3.88,0,0,0-3.875,3.875V42H28.417V38.128a3.88,3.88,0,0,0-3.875-3.875H16.226a3.877,3.877,0,0,0-3.761,2.935L11.261,42H7.75Zm40.336,16.3a1.291,1.291,0,0,1-1.02.5H37.458a1.294,1.294,0,0,1-1.292-1.292V38.126a1.294,1.294,0,0,1,1.292-1.292h8.318a1.288,1.288,0,0,1,1.253.976l1.292,5.167A1.281,1.281,0,0,1,48.086,44.088Zm-22.25-5.962v5.154c0,.005,0,.008,0,.013V43.3a1.292,1.292,0,0,1-1.289,1.286H14.937a1.292,1.292,0,0,1-1.255-1.607l1.292-5.167a1.292,1.292,0,0,1,1.255-.977h8.316A1.294,1.294,0,0,1,25.836,38.126ZM7.412,44.584H11.3a3.765,3.765,0,0,0,3.635,2.583h9.607a3.871,3.871,0,0,0,3.637-2.583h5.642a3.868,3.868,0,0,0,3.637,2.583h9.607a3.864,3.864,0,0,0,3.056-1.488,3.8,3.8,0,0,0,.576-1.1h3.89l3.989,12.963a3.729,3.729,0,0,0-.452-.047H3.875a3.636,3.636,0,0,0-.449.047Zm-2.245,31H2.583V73H5.167v2.583Zm54.25,0H56.833V73h2.583Zm0-5.167H2.583V61.376a1.294,1.294,0,0,1,1.292-1.292h54.25a1.294,1.294,0,0,1,1.292,1.292Z" transform="translate(0 -21.334)" fill="#fff"/></g></g></svg>