<svg xmlns="http://www.w3.org/2000/svg" width="54.5" height="54" viewBox="0 0 54.5 54"><g transform="translate(-572.75 -1633)"><rect width="54" height="54" transform="translate(573 1633)" fill="none"/><g transform="translate(573 1636)"><path d="M53.209,45.794H50.161a4.4,4.4,0,0,0,.012-5.168,4.667,4.667,0,0,0,1.87-.906,1.361,1.361,0,0,0,.034-2.1l-7.321-6.259a3.919,3.919,0,0,1-1.168-1.732l-1.711-5.108,0,0-1.54-4.6a6.9,6.9,0,0,0-4.466-4.382l-5.3-1.666a5.6,5.6,0,0,0,2.384-4.584V5.607a5.607,5.607,0,0,0-11.214,0V9.289a5.6,5.6,0,0,0,2.188,4.439q-.206.057-.412.121l-5.38,1.69a6.9,6.9,0,0,0-4.466,4.382l-3.253,9.711a3.916,3.916,0,0,1-1.168,1.732l-7.321,6.26a1.361,1.361,0,0,0,.034,2.1,4.66,4.66,0,0,0,1.961.926A4.883,4.883,0,0,0,3.64,44.7a4.387,4.387,0,0,0,.6,1.1H.791a.791.791,0,1,0,0,1.582H53.209a.791.791,0,0,0,0-1.582Zm-18-18.453L38,34.293a.81.81,0,0,0,.056.112,5.51,5.51,0,0,0,2.037,1.973l.926.516-5.812-1.775Zm8.52,5.225,7.11,6.078a3.061,3.061,0,0,1-3.2.129L40.864,35a3.924,3.924,0,0,1-1.42-1.354l-2.49-6.2,3.693-1.612,1.44,4.3a5.5,5.5,0,0,0,1.64,2.432ZM23.316,9.289V5.607a4.025,4.025,0,1,1,8.05,0V9.289a4.025,4.025,0,1,1-8.05,0ZM18.6,17.048l5.38-1.689a10.015,10.015,0,0,1,6.031,0l5.38,1.689a5.317,5.317,0,0,1,3.439,3.375l1.308,3.9-3.779,1.649-1.214-3.02a.791.791,0,0,0-1.525.295V34.913H20.375V23.252a.791.791,0,0,0-1.525-.295L17.8,25.57,14.066,23.7l1.1-3.281A5.317,5.317,0,0,1,18.6,17.048ZM10.272,32.566a5.5,5.5,0,0,0,1.64-2.432l1.646-4.915,3.649,1.825-2.263,5.65a.791.791,0,1,0,1.468.59l2.38-5.941v7.775l-5.7,1.714.812-.453a5.507,5.507,0,0,0,2.037-1.972A.793.793,0,0,0,16,34.293l.591-1.472a.791.791,0,0,0-1.468-.59l-.567,1.411A3.919,3.919,0,0,1,13.136,35L6.36,38.773a3.061,3.061,0,0,1-3.2-.129ZM7.56,45.794h0a2.483,2.483,0,0,1-2.438-1.659,3.32,3.32,0,0,1,.75-3.481L19.7,36.5H34.3L47.428,40.5a2.818,2.818,0,0,1,.912,4.917l-.477.373h-16.7a4.019,4.019,0,0,0-.931-1.948l1.576-.087a.791.791,0,0,0-.087-1.58l-4.287.237c-.181-.033-.37-.06-.569-.08l-12.2-1.274a.791.791,0,1,0-.164,1.573L26.7,43.91c.185.019.358.045.52.076l.01,0a2.7,2.7,0,0,1,2.326,1.806Zm0,0" fill="#333" stroke="#333" stroke-width="0.5"/><path d="M333.34,396.926h.046l5.533-.306a.82.82,0,1,0-.091-1.638l-5.533.306a.82.82,0,0,0,.044,1.639Zm0,0" transform="translate(-297.641 -353.535)" fill="#333" stroke="#333" stroke-width="0.5"/></g></g></svg>