<svg xmlns="http://www.w3.org/2000/svg" width="54.001" height="54" viewBox="0 0 54.001 54"><g transform="translate(-374.536 -1913.596)"><rect width="54" height="54" transform="translate(374.537 1913.596)" fill="none"/><g transform="translate(2 7)"><g transform="translate(389.82 1930.294)" fill="none" stroke="#333" stroke-linecap="round" stroke-width="2"><rect width="19.433" height="8.449" stroke="none"/><rect x="1" y="1" width="17.433" height="6.449" fill="none"/></g><g transform="translate(407.986 1921)"><g transform="translate(8.551 -0.404) rotate(90)" fill="none" stroke="#333" stroke-linecap="round" stroke-width="2"><rect width="27" height="9" rx="2" stroke="none"/><rect x="1" y="1" width="25" height="7" rx="1" fill="none"/></g><g transform="translate(14.551 3.596) rotate(90)" fill="none" stroke="#333" stroke-linecap="round" stroke-width="2"><rect width="19" height="8" rx="2" stroke="none"/><rect x="1" y="1" width="17" height="6" rx="1" fill="none"/></g><g transform="translate(18.551 9.596) rotate(90)" fill="none" stroke="#333" stroke-linecap="round" stroke-width="2"><rect width="8" height="6" rx="2" stroke="none"/><rect x="1" y="1" width="6" height="4" rx="1" fill="none"/></g></g><g transform="translate(372.5 1921)"><g transform="translate(19.037 -0.404) rotate(90)" fill="none" stroke="#333" stroke-linecap="round" stroke-width="2"><rect width="27" height="9" rx="2" stroke="none"/><rect x="1" y="1" width="25" height="7" rx="1" fill="none"/></g><g transform="translate(12.037 3.596) rotate(90)" fill="none" stroke="#333" stroke-linecap="round" stroke-width="2"><rect width="19" height="8" rx="2" stroke="none"/><rect x="1" y="1" width="17" height="6" rx="1" fill="none"/></g><g transform="translate(6.037 9.596) rotate(90)" fill="none" stroke="#333" stroke-linecap="round" stroke-width="2"><rect width="8" height="6" rx="2" stroke="none"/><rect x="1" y="1" width="6" height="4" rx="1" fill="none"/></g></g></g></g></svg>