<svg xmlns="http://www.w3.org/2000/svg" width="54" height="54" viewBox="0 0 54 54"><g transform="translate(-762 -1603)"><rect width="54" height="54" transform="translate(762 1603)" fill="none"/><g transform="translate(757.252 1598.222)"><path d="M57.951,51.7H49a5.587,5.587,0,0,1-5.5-4.585L40.758,31.978A12.639,12.639,0,0,0,28.317,21.594h-1.33V20.7a.8.8,0,0,0-.8-.8H24.253v-.468h2.255a.8.8,0,0,0,.622-1.3L16.65,5.062a.824.824,0,0,0-1.244,0L4.925,18.14a.8.8,0,0,0,.622,1.3H7.8V30.816H6.04a.8.8,0,0,0-.8.8v2.734a.8.8,0,0,0,.8.8H7.8V57.967a.8.8,0,0,0,.8.8h2.734a.8.8,0,0,0,.8-.8V54.131h7.792v3.836a.8.8,0,0,0,.8.8h2.734a.8.8,0,0,0,.8-.8V35.145h1.762a.8.8,0,0,0,.8-.8V31.613a.8.8,0,0,0-.8-.8H24.253v-.468h1.936a.8.8,0,0,0,.8-.8v-.894h1.331a5.58,5.58,0,0,1,5.491,4.586L36.56,48.381A12.639,12.639,0,0,0,49,58.765h8.95a.8.8,0,0,0,.8-.8V52.5A.8.8,0,0,0,57.951,51.7ZM16.027,6.839l8.819,11H7.208ZM10.536,57.17H9.4V35.145h1.139Zm9.387-22.025v3.721H12.131V35.145Zm0,8.278H12.131V40.46h7.792Zm-7.792,1.595h7.792v2.962H12.131Zm0,7.519V49.574h7.792v2.962ZM22.657,57.17H21.518V35.145h1.139Zm2.559-23.62H6.838V32.411h18.38ZM9.4,30.816V19.437H22.656V30.816Zm14.856-2.062V21.5h1.139v7.253Zm32.9,28.416H49A11.046,11.046,0,0,1,38.128,48.1L35.376,32.957a7.173,7.173,0,0,0-7.059-5.9h-1.33V23.189h1.33a11.046,11.046,0,0,1,10.872,9.074L41.937,47.4A7.182,7.182,0,0,0,49,53.3h8.152Z" transform="translate(0 0)" fill="#333"/><path d="M24.189,39.682a4.439,4.439,0,1,0,4.439,4.439,4.439,4.439,0,0,0-4.439-4.439Zm0,7.284a2.845,2.845,0,1,1,2.845-2.845A2.845,2.845,0,0,1,24.189,46.966Z" transform="translate(-8.172 -18.996)" fill="#333"/></g></g></svg>