<svg xmlns="http://www.w3.org/2000/svg" width="54" height="54" viewBox="0 0 54 54"><g transform="translate(-967 -1721)"><rect width="54" height="54" transform="translate(967 1721)" fill="none"/><g transform="translate(967 1721)"><path d="M51.89,47.853V20.039a1.055,1.055,0,0,0-1.055-1.055H44.929V13.711a1.055,1.055,0,0,0-1.055-1.055H39.657a13.737,13.737,0,0,0-11.6-8.4V1.055a1.055,1.055,0,0,0-2.109,0V4.26a13.737,13.737,0,0,0-11.6,8.4H10.125A1.055,1.055,0,0,0,9.07,13.711v5.273H3.164a1.055,1.055,0,0,0-1.055,1.055V47.853A3.169,3.169,0,0,0,0,50.836v2.109A1.055,1.055,0,0,0,1.054,54h21.2a1.055,1.055,0,1,0,0-2.109H2.109V50.836a1.056,1.056,0,0,1,1.055-1.055H50.836a1.056,1.056,0,0,1,1.055,1.055v1.055H31.746a1.055,1.055,0,1,0,0,2.109h21.2A1.055,1.055,0,0,0,54,52.945V50.836a3.169,3.169,0,0,0-2.109-2.983Zm-2.109-.181H44.929V27.422h1.055a1.055,1.055,0,0,0,1.055-1.055V22.148a1.055,1.055,0,0,0-.543-.922l-.239-.133h3.523Zm-23.836,0H21.726V39.023a5.282,5.282,0,0,1,4.219-5.167Zm2.109-13.816a5.282,5.282,0,0,1,4.219,5.167v8.648H28.054ZM27,31.641a7.391,7.391,0,0,0-7.383,7.383v8.648H15.4V27.422H38.6v20.25H34.382V39.023A7.391,7.391,0,0,0,27,31.641Zm0-18.833,17.93,9.961v2.544H9.07V22.769ZM13.289,27.422v20.25H11.179V27.422Zm27.422,0H42.82v20.25H40.711Zm2.109-8.437h-.359l-7.594-4.219H42.82ZM27,6.328a11.626,11.626,0,0,1,10.335,6.328H31.07L27.512,10.68a1.053,1.053,0,0,0-1.024,0l-3.558,1.977H16.665A11.626,11.626,0,0,1,27,6.328Zm-15.82,8.437h7.953l-7.594,4.219h-.359ZM7.742,21.094l-.239.133a1.055,1.055,0,0,0-.543.922v4.219a1.055,1.055,0,0,0,1.055,1.055H9.07v20.25H4.218V21.094Zm0,0" transform="translate(0)" fill="#333"/><path d="M248.115,493.058A1.058,1.058,0,1,1,247.058,492,1.058,1.058,0,0,1,248.115,493.058Zm0,0" transform="translate(-220.058 -440.115)" fill="#333"/><path d="M229.173,166.346A3.173,3.173,0,1,0,226,163.173,3.176,3.176,0,0,0,229.173,166.346Zm0-4.231a1.058,1.058,0,1,1-1.058,1.058A1.059,1.059,0,0,1,229.173,162.115Zm0,0" transform="translate(-202.173 -143.131)" fill="#333"/></g></g></svg>