<svg xmlns="http://www.w3.org/2000/svg" width="54.4" height="54.4" viewBox="0 0 54.4 54.4"><g transform="translate(0.2 0.2)"><path d="M0,0V10.04H1.9V40.311H3.487V10.04H13.949v2.642H8.243V37.517H45.757V12.682H40.051V10.04H50.513V19.7H52.1V10.04H54V0ZM50.517,1.585,46.656,4.077,42.794,1.585Zm-13.1,0L33.552,4.077,29.69,1.585ZM29.69,8.454l3.862-2.491,3.862,2.491Zm8.775,1.585v2.642H27.793V10.04ZM32.09,5.02,27,8.3,21.91,5.02,27,1.736Zm-5.883,5.02v2.642H15.534V10.04ZM16.587,8.454l3.862-2.491L24.31,8.454ZM24.31,1.585,20.448,4.077,16.587,1.585Zm-13.1,0L7.345,4.077,3.483,1.585ZM1.585,7.792V2.247l4.3,2.773Zm1.9.662L7.345,5.963l3.862,2.491ZM13.9,8.3,8.806,5.02,13.9,1.736l5.09,3.284Zm30.276,5.963V35.931H9.828V14.267ZM35.014,5.02,40.1,1.736l5.09,3.284L40.1,8.3Zm7.78,3.435,3.862-2.491,3.862,2.491Zm9.621-.662-4.3-2.772,4.3-2.773Zm0,0" fill="#333" stroke="#333" stroke-width="0.4"/><path d="M1.586,405.758h43.6v-1.586H41.224v-1.7a2.911,2.911,0,0,0,2.114-2.8v-2.907H37.524v2.907a2.911,2.911,0,0,0,2.114,2.8v1.7H27.8v-1.7a2.911,2.911,0,0,0,2.114-2.8v-2.907H24.1v2.907a2.911,2.911,0,0,0,2.114,2.8v1.7H14.376v-1.7a2.911,2.911,0,0,0,2.114-2.8v-2.907H10.676v2.907a2.911,2.911,0,0,0,2.114,2.8v1.7H0v4.757H16.86v-1.586H1.586Zm37.523-6.078v-1.321h2.643v1.321a1.321,1.321,0,0,1-2.643,0Zm-13.424,0v-1.321h2.642v1.321a1.321,1.321,0,1,1-2.642,0Zm-13.424,0v-1.321H14.9v1.321a1.321,1.321,0,0,1-2.643,0Zm0,0" transform="translate(0 -354.929)" fill="#333" stroke="#333" stroke-width="0.4"/><path d="M201.013,468.5h7.345v1.585H171.84v1.586h38.1V466.91h-8.931Zm0,0" transform="translate(-155.944 -417.667)" fill="#333" stroke="#333" stroke-width="0.4"/><path d="M18.035,373.23h1.586v10.463H18.035Zm0,0" transform="translate(-16.133 -333.869)" fill="#333" stroke="#333" stroke-width="0.4"/><path d="M478.934,177.848h1.586v31.075h-1.586Zm0,0" transform="translate(-428.422 -159.099)" fill="#333" stroke="#333" stroke-width="0.4"/><path d="M109.8,151.878h16.648v-1.586H108.211v10.834H109.8Zm0,0" transform="translate(-96.8 -134.442)" fill="#333" stroke="#333" stroke-width="0.4"/><path d="M305.855,167.2h-5.02v1.586h6.606v-18.5H296.078v1.586h9.777Zm0,0" transform="translate(-264.853 -134.443)" fill="#333" stroke="#333" stroke-width="0.4"/><path d="M131.2,272.515H109.8v-4.492h-1.586V274.1H131.2Zm0,0" transform="translate(-96.8 -239.756)" fill="#333" stroke="#333" stroke-width="0.4"/><path d="M1.121,7.463,0,6.342,1.121,5.221,2.242,6.342ZM3.363,5.221,2.242,4.1,6.342,0,7.463,1.121Zm0,0" transform="matrix(0.719, -0.695, 0.695, 0.719, 17.757, 26.365)" fill="#333" stroke="#333" stroke-width="0.4"/><path d="M1.121,7.463,0,6.342,1.121,5.221,2.242,6.342ZM3.363,5.221,2.242,4.1,6.342,0,7.463,1.121Zm0,0" transform="matrix(0.719, -0.695, 0.695, 0.719, 23.161, 26.178)" fill="#333" stroke="#333" stroke-width="0.4"/></g></svg>