<svg xmlns="http://www.w3.org/2000/svg" width="54" height="54" viewBox="0 0 54 54"><g transform="translate(-875 -1766)"><rect width="54" height="54" transform="translate(875 1766)" fill="none"/><g transform="translate(847.056 1766)"><g transform="translate(30.944)"><g transform="translate(0)"><path d="M76.818,28.7l-2,1.178a2.656,2.656,0,0,1-2.726-.015l-1.869-1.129a5.809,5.809,0,0,0-5.961-.033l-2,1.177a2.656,2.656,0,0,1-2.726-.015L57.67,28.734a5.847,5.847,0,0,0-.579-.306V6.587a3.391,3.391,0,1,1,6.781,0v3.595h3.164V6.587a6.555,6.555,0,1,0-13.109,0V19.233h-13.3V6.587a3.391,3.391,0,1,1,6.781,0v3.595h3.164V6.587a6.555,6.555,0,1,0-13.109,0V29.7l-.305.18a2.656,2.656,0,0,1-2.726-.015l-1.857-1.122-1.63,2.725L32.8,32.588a5.8,5.8,0,0,0,5.957.033l2-1.177a2.66,2.66,0,0,1,2.73.015l1.869,1.129a5.8,5.8,0,0,0,5.957.033l2-1.177a2.66,2.66,0,0,1,2.73.015l1.869,1.129a5.805,5.805,0,0,0,5.957.033l2-1.177a2.661,2.661,0,0,1,2.73.015l1.869,1.129a5.8,5.8,0,0,0,5.957.033l2-1.178Zm-22.89-.759a5.814,5.814,0,0,0-2.218.76l-2,1.177a2.656,2.656,0,0,1-2.726-.015l-1.869-1.129a5.809,5.809,0,0,0-4.489-.647V22.412h13.3Z" transform="translate(-30.946)" fill="#333"/></g></g><g transform="translate(30.944 38.295)"><g transform="translate(0)"><path d="M76.816,364.1l-2,1.179a2.656,2.656,0,0,1-2.726-.015l-1.869-1.129a5.809,5.809,0,0,0-5.961-.033l-2,1.177a2.656,2.656,0,0,1-2.726-.015l-1.869-1.129a5.808,5.808,0,0,0-5.961-.033l-2,1.177a2.656,2.656,0,0,1-2.726-.015l-1.869-1.129a5.809,5.809,0,0,0-5.961-.033l-2,1.177a2.657,2.657,0,0,1-2.726-.015l-1.857-1.122-1.631,2.725,1.857,1.122a5.805,5.805,0,0,0,5.957.033l2-1.177a2.66,2.66,0,0,1,2.73.015l1.869,1.129a5.805,5.805,0,0,0,5.957.033l2-1.177a2.659,2.659,0,0,1,2.73.015l1.869,1.129a5.805,5.805,0,0,0,5.957.033l2-1.177a2.66,2.66,0,0,1,2.73.015l1.869,1.129a5.8,5.8,0,0,0,5.957.033l2-1.178Z" transform="translate(-30.944 -363.297)" fill="#333"/></g></g><g transform="translate(30.944 48.467)"><g transform="translate(0)"><path d="M76.817,460.607l-2,1.179a2.656,2.656,0,0,1-2.726-.015l-1.869-1.129a5.81,5.81,0,0,0-5.961-.033l-2,1.177a2.657,2.657,0,0,1-2.726-.015l-1.869-1.129a5.809,5.809,0,0,0-5.961-.033l-2,1.177a2.656,2.656,0,0,1-2.726-.015l-1.869-1.129a5.809,5.809,0,0,0-5.961-.033l-2,1.177a2.656,2.656,0,0,1-2.726-.015l-1.856-1.122-1.63,2.725L32.8,464.5a5.8,5.8,0,0,0,5.957.033l2-1.177a2.661,2.661,0,0,1,2.73.015l1.869,1.129a5.8,5.8,0,0,0,5.957.033l2-1.177a2.66,2.66,0,0,1,2.73.015l1.869,1.129a5.8,5.8,0,0,0,5.957.033l2-1.177a2.66,2.66,0,0,1,2.73.015l1.869,1.129a5.8,5.8,0,0,0,5.957.033l2-1.178Z" transform="translate(-30.946 -459.802)" fill="#333"/></g></g></g></g></svg>