<svg xmlns="http://www.w3.org/2000/svg" width="68.398" height="32.718" viewBox="0 0 68.398 32.718"><g transform="translate(0 -127.987)"><g transform="translate(14.872 133.934)"><g transform="translate(0 0)"><path d="M143.86,170.654H108.176a1.487,1.487,0,1,0,0,2.974H143.86a1.487,1.487,0,1,0,0-2.974Z" transform="translate(-106.689 -170.654)" fill="#fff"/></g></g><g transform="translate(26.763 133.934)"><g transform="translate(0 0)"><path d="M199.437,170.654a1.487,1.487,0,0,0-1.487,1.487v19.9l-5.127,2.56a1.487,1.487,0,1,0,1.332,2.658l5.947-2.974a1.489,1.489,0,0,0,.821-1.329V172.141A1.487,1.487,0,0,0,199.437,170.654Z" transform="translate(-192 -170.654)" fill="#fff"/></g></g><g transform="translate(32.715 154.747)"><g transform="translate(0 0)"><path d="M242.8,323.1l-5.947-2.974a1.487,1.487,0,1,0-1.329,2.662l5.947,2.974a1.477,1.477,0,0,0,.663.158,1.488,1.488,0,0,0,.666-2.819Z" transform="translate(-234.697 -319.97)" fill="#fff"/></g></g><g transform="translate(47.582 145.829)"><g transform="translate(0 0)"><path d="M362.129,269.01l-2.974-11.895a1.488,1.488,0,0,0-1.442-1.127H344.332a1.487,1.487,0,0,0-1.475,1.3l-1.487,11.895a1.487,1.487,0,0,0,1.291,1.662,1.47,1.47,0,0,0,1.659-1.291l1.323-10.6h10.907l2.7,10.768a1.485,1.485,0,1,0,2.881-.72Z" transform="translate(-341.359 -255.988)" fill="#fff"/></g></g><g transform="translate(62.447 127.987)"><g transform="translate(0 0)"><path d="M452.7,128.008a1.486,1.486,0,0,0-1.71,1.222l-2.974,17.842a1.485,1.485,0,0,0,1.222,1.71,1.4,1.4,0,0,0,.247.021,1.478,1.478,0,0,0,1.463-1.243l2.974-17.842A1.485,1.485,0,0,0,452.7,128.008Z" transform="translate(-448 -127.987)" fill="#fff"/></g></g><g transform="translate(0 145.829)"><g transform="translate(0)"><path d="M20.807,269.185,19.32,257.29a1.487,1.487,0,0,0-1.475-1.3H4.464a1.494,1.494,0,0,0-1.445,1.127L.045,269.01a1.487,1.487,0,0,0,1.082,1.8,1.534,1.534,0,0,0,.363.045,1.484,1.484,0,0,0,1.442-1.127l2.694-10.768H16.534l1.323,10.6a1.467,1.467,0,0,0,1.659,1.291A1.491,1.491,0,0,0,20.807,269.185Z" transform="translate(0 -255.988)" fill="#fff"/></g></g><g transform="translate(0.003 127.987)"><g transform="translate(0 0)"><path d="M5.949,147.072,2.975,129.23a1.486,1.486,0,1,0-2.932.488L3.017,147.56A1.488,1.488,0,0,0,4.483,148.8a1.382,1.382,0,0,0,.244-.021A1.488,1.488,0,0,0,5.949,147.072Z" transform="translate(-0.022 -127.987)" fill="#fff"/></g></g><g transform="translate(1.49 151.776)"><g transform="translate(0 0)"><path d="M27.788,298.654H12.176a1.487,1.487,0,0,0,0,2.974H27.788a1.487,1.487,0,0,0,0-2.974Z" transform="translate(-10.689 -298.654)" fill="#fff"/></g></g><g transform="translate(48.326 151.776)"><g transform="translate(0 0)"><path d="M363.788,298.654H348.176a1.487,1.487,0,1,0,0,2.974h15.612a1.487,1.487,0,0,0,0-2.974Z" transform="translate(-346.689 -298.654)" fill="#fff"/></g></g></g></svg>