<svg xmlns="http://www.w3.org/2000/svg" width="16" height="16" viewBox="0 0 16 16"><g transform="translate(229 -85)"><rect width="16" height="16" transform="translate(-229 85)" fill="none"/><g transform="translate(-229 78.382)"><g transform="translate(0 10.618)"><path d="M32.794,15.151l.855-3.879A.537.537,0,0,0,32.6,11.04L31.837,14.5H28.41a.538.538,0,0,0,0,1.075h.2l-1.157,2.74a.537.537,0,1,0,.99.418l1.057-2.5h1.676l1.055,2.5a.537.537,0,0,0,.99-.418l-1.157-2.74h.2A.538.538,0,0,0,32.794,15.151Z" transform="translate(-17.674 -10.618)" fill="#333"/><path d="M5.048,15.573h.2a.538.538,0,0,0,0-1.075H1.824L1.062,11.04a.537.537,0,0,0-1.049.232l.855,3.879a.537.537,0,0,0,.525.422h.2L.439,18.314a.537.537,0,0,0,.99.417l1.055-2.5H4.16l1.056,2.5a.537.537,0,0,0,.99-.417Z" transform="translate(0 -10.618)" fill="#333"/><path d="M16.146,20.992h-.3V16.358h2.888a.537.537,0,1,0,0-1.075H11.881a.537.537,0,1,0,0,1.075h2.888v4.634h-.3a.538.538,0,0,0,0,1.075h1.68a.538.538,0,1,0,0-1.075Z" transform="translate(-7.313 -13.626)" fill="#333"/></g></g></g></svg>