<svg xmlns="http://www.w3.org/2000/svg" width="500" height="620" viewBox="0 0 500 620"><g transform="translate(-555 -1072)"><g transform="translate(555 1072)" fill="none" stroke="#d9d9d9" stroke-width="4"><rect width="500" height="620" stroke="none"/><rect x="2" y="2" width="496" height="616" fill="none"/></g><g transform="translate(-10 -11)"><rect width="460" height="90" transform="translate(585 1103)" fill="#d9d9d9"/><g transform="translate(789.999 1123)"><path d="M5.019-511.793a6.5,6.5,0,0,0-4.312,3.356c-.761,1.551-.712.059-.712,21.465s-.049,19.914.712,21.465a6.368,6.368,0,0,0,2.8,2.8c1.551.761.059.712,21.465.712s19.914.049,21.465-.712a6.368,6.368,0,0,0,2.8-2.8c.761-1.551.712-.059.712-21.465s.049-19.913-.712-21.465a6.369,6.369,0,0,0-2.8-2.8c-1.551-.761-.049-.712-21.533-.7C8.395-511.929,5.6-511.91,5.019-511.793ZM44.924-508.7a3.759,3.759,0,0,1,1.776,1.766l.273.6L47-497.362c.01,4.937.01,9.806,0,10.83l-.029,1.854-3.366-4.147c-1.854-2.283-3.532-4.332-3.737-4.556a3.884,3.884,0,0,0-4.459-.956c-.6.263-1.024.663-7.64,7.259-5.464,5.454-7.025,6.966-7.132,6.888-.078-.059-1.3-1.054-2.7-2.225a34.787,34.787,0,0,0-3.1-2.39,2.769,2.769,0,0,0-1.571-.263c-1.678,0-1.083-.42-9.493,6.752l-.849.732.02-14.381.029-14.372.273-.585a3.607,3.607,0,0,1,2.449-2c.215-.039,9.005-.068,19.523-.059l19.123.01Zm-7.493,17.074c.117.068,2.322,2.722,4.908,5.9l4.693,5.776L47-473.771l-.029,6.166-.273.585a3.758,3.758,0,0,1-1.766,1.776l-.6.273H5.6l-.6-.273a3.758,3.758,0,0,1-1.766-1.776L2.97-467.6l-.029-3.073-.02-3.073,4.254-3.61c6.127-5.2,5.669-4.83,6-4.83a1.2,1.2,0,0,1,.488.107c.107.059,1.542,1.22,3.19,2.6s3.132,2.576,3.288,2.673a1.544,1.544,0,0,0,1.376.029c.185-.088,3.473-3.327,7.513-7.386,3.961-3.981,7.308-7.318,7.444-7.405A.894.894,0,0,1,37.431-491.625Z" transform="translate(0.006 511.943)" fill="#b2b2b2"/><path d="M94.764-448.657a6.974,6.974,0,0,0-3.805,2.049A6.639,6.639,0,0,0,88.9-441.72a10.209,10.209,0,0,0,.1,1.415,7.1,7.1,0,0,0,5.3,5.532,8.112,8.112,0,0,0,3.786-.117,6.95,6.95,0,0,0,4.2-3.659,5.762,5.762,0,0,0,.732-3.122,6.38,6.38,0,0,0-.224-1.854,7.138,7.138,0,0,0-4.849-4.927A9.2,9.2,0,0,0,94.764-448.657Zm2.468,3.083a4.171,4.171,0,0,1,2.79,4.537,4.1,4.1,0,0,1-3.805,3.493,4.078,4.078,0,0,1-4.02-2.42,4.267,4.267,0,0,1-.215-2.839,4.2,4.2,0,0,1,2.166-2.547A4.118,4.118,0,0,1,97.232-445.574Z" transform="translate(-80.226 454.886)" fill="#b2b2b2"/></g></g><rect width="460" height="10" transform="translate(575 1197)" fill="#d9d9d9"/><rect width="460" height="10" transform="translate(575 1222)" fill="#d9d9d9"/><rect width="460" height="10" transform="translate(575 1247)" fill="#d9d9d9"/><rect width="460" height="10" transform="translate(575 1272)" fill="#d9d9d9"/><rect width="140" height="90" transform="translate(575 1302)" fill="#d9d9d9"/><g transform="translate(626 1328)"><path d="M3.862-511.827a5.007,5.007,0,0,0-3.319,2.583c-.586,1.194-.548.045-.548,16.522S-.044-477.394.542-476.2A4.9,4.9,0,0,0,2.7-474.045c1.194.586.045.548,16.522.548s15.328.038,16.522-.548A4.9,4.9,0,0,0,37.9-476.2c.586-1.194.548-.045.548-16.522s.038-15.328-.548-16.522a4.9,4.9,0,0,0-2.155-2.155c-1.194-.586-.038-.548-16.574-.541C6.46-511.932,4.312-511.917,3.862-511.827Zm30.716,2.381a2.893,2.893,0,0,1,1.367,1.359l.21.458.023,6.909c.008,3.8.008,7.548,0,8.336l-.023,1.427-2.591-3.192c-1.427-1.757-2.719-3.334-2.876-3.507a2.989,2.989,0,0,0-3.432-.736c-.458.2-.789.511-5.88,5.587-4.206,4.2-5.407,5.362-5.49,5.3-.06-.045-1-.811-2.08-1.712a26.775,26.775,0,0,0-2.388-1.84,2.131,2.131,0,0,0-1.209-.2c-1.292,0-.834-.323-7.307,5.2l-.653.563.015-11.07.023-11.062.21-.451a2.776,2.776,0,0,1,1.885-1.54c.165-.03,6.932-.053,15.027-.045l14.719.008ZM28.81-496.3c.09.053,1.787,2.1,3.778,4.544l3.612,4.446-.023,4.754-.023,4.746-.21.451A2.893,2.893,0,0,1,34.585-476l-.458.21H4.312L3.854-476a2.893,2.893,0,0,1-1.359-1.367l-.21-.451-.023-2.366-.015-2.366,3.274-2.779c4.716-4,4.363-3.717,4.619-3.717a.924.924,0,0,1,.375.083c.083.045,1.187.939,2.456,2s2.411,1.983,2.531,2.058a1.188,1.188,0,0,0,1.059.023c.143-.068,2.674-2.561,5.783-5.685,3.049-3.064,5.625-5.632,5.73-5.7A.688.688,0,0,1,28.81-496.3Z" transform="translate(0.006 511.943)" fill="#b2b2b2"/><path d="M93.413-448.671a5.368,5.368,0,0,0-2.929,1.577,5.11,5.11,0,0,0-1.585,3.763,7.858,7.858,0,0,0,.075,1.089,5.467,5.467,0,0,0,4.078,4.258,6.244,6.244,0,0,0,2.914-.09,5.35,5.35,0,0,0,3.229-2.816,4.435,4.435,0,0,0,.563-2.4,4.911,4.911,0,0,0-.173-1.427,5.494,5.494,0,0,0-3.732-3.793A7.078,7.078,0,0,0,93.413-448.671Zm1.9,2.373a3.21,3.21,0,0,1,2.148,3.492,3.158,3.158,0,0,1-2.929,2.689,3.139,3.139,0,0,1-3.094-1.862,3.285,3.285,0,0,1-.165-2.185,3.233,3.233,0,0,1,1.667-1.96A3.17,3.17,0,0,1,95.313-446.3Z" transform="translate(-82.223 453.466)" fill="#b2b2b2"/></g><rect width="140" height="10" transform="translate(575 1407)" fill="#d9d9d9"/><rect width="140" height="10" transform="translate(575 1507)" fill="#d9d9d9"/><rect width="140" height="10" transform="translate(575 1607)" fill="#d9d9d9"/><rect width="140" height="10" transform="translate(575 1432)" fill="#d9d9d9"/><rect width="140" height="10" transform="translate(575 1532)" fill="#d9d9d9"/><rect width="140" height="10" transform="translate(575 1632)" fill="#d9d9d9"/><rect width="140" height="10" transform="translate(575 1457)" fill="#d9d9d9"/><rect width="140" height="10" transform="translate(575 1557)" fill="#d9d9d9"/><rect width="140" height="10" transform="translate(575 1657)" fill="#d9d9d9"/><rect width="140" height="10" transform="translate(575 1482)" fill="#d9d9d9"/><rect width="140" height="10" transform="translate(575 1582)" fill="#d9d9d9"/><g transform="translate(160)"><rect width="140" height="90" transform="translate(575 1302)" fill="#d9d9d9"/><g transform="translate(626 1328)"><path d="M3.862-511.827a5.007,5.007,0,0,0-3.319,2.583c-.586,1.194-.548.045-.548,16.522S-.044-477.394.542-476.2A4.9,4.9,0,0,0,2.7-474.045c1.194.586.045.548,16.522.548s15.328.038,16.522-.548A4.9,4.9,0,0,0,37.9-476.2c.586-1.194.548-.045.548-16.522s.038-15.328-.548-16.522a4.9,4.9,0,0,0-2.155-2.155c-1.194-.586-.038-.548-16.574-.541C6.46-511.932,4.312-511.917,3.862-511.827Zm30.716,2.381a2.893,2.893,0,0,1,1.367,1.359l.21.458.023,6.909c.008,3.8.008,7.548,0,8.336l-.023,1.427-2.591-3.192c-1.427-1.757-2.719-3.334-2.876-3.507a2.989,2.989,0,0,0-3.432-.736c-.458.2-.789.511-5.88,5.587-4.206,4.2-5.407,5.362-5.49,5.3-.06-.045-1-.811-2.08-1.712a26.775,26.775,0,0,0-2.388-1.84,2.131,2.131,0,0,0-1.209-.2c-1.292,0-.834-.323-7.307,5.2l-.653.563.015-11.07.023-11.062.21-.451a2.776,2.776,0,0,1,1.885-1.54c.165-.03,6.932-.053,15.027-.045l14.719.008ZM28.81-496.3c.09.053,1.787,2.1,3.778,4.544l3.612,4.446-.023,4.754-.023,4.746-.21.451A2.893,2.893,0,0,1,34.585-476l-.458.21H4.312L3.854-476a2.893,2.893,0,0,1-1.359-1.367l-.21-.451-.023-2.366-.015-2.366,3.274-2.779c4.716-4,4.363-3.717,4.619-3.717a.924.924,0,0,1,.375.083c.083.045,1.187.939,2.456,2s2.411,1.983,2.531,2.058a1.188,1.188,0,0,0,1.059.023c.143-.068,2.674-2.561,5.783-5.685,3.049-3.064,5.625-5.632,5.73-5.7A.688.688,0,0,1,28.81-496.3Z" transform="translate(0.006 511.943)" fill="#b2b2b2"/><path d="M93.413-448.671a5.368,5.368,0,0,0-2.929,1.577,5.11,5.11,0,0,0-1.585,3.763,7.858,7.858,0,0,0,.075,1.089,5.467,5.467,0,0,0,4.078,4.258,6.244,6.244,0,0,0,2.914-.09,5.35,5.35,0,0,0,3.229-2.816,4.435,4.435,0,0,0,.563-2.4,4.911,4.911,0,0,0-.173-1.427,5.494,5.494,0,0,0-3.732-3.793A7.078,7.078,0,0,0,93.413-448.671Zm1.9,2.373a3.21,3.21,0,0,1,2.148,3.492,3.158,3.158,0,0,1-2.929,2.689,3.139,3.139,0,0,1-3.094-1.862,3.285,3.285,0,0,1-.165-2.185,3.233,3.233,0,0,1,1.667-1.96A3.17,3.17,0,0,1,95.313-446.3Z" transform="translate(-82.223 453.466)" fill="#b2b2b2"/></g><rect width="140" height="10" transform="translate(575 1407)" fill="#d9d9d9"/><rect width="140" height="10" transform="translate(575 1507)" fill="#d9d9d9"/><rect width="140" height="10" transform="translate(575 1607)" fill="#d9d9d9"/><rect width="140" height="10" transform="translate(575 1432)" fill="#d9d9d9"/><rect width="140" height="10" transform="translate(575 1532)" fill="#d9d9d9"/><rect width="140" height="10" transform="translate(575 1632)" fill="#d9d9d9"/><rect width="140" height="10" transform="translate(575 1457)" fill="#d9d9d9"/><rect width="140" height="10" transform="translate(575 1557)" fill="#d9d9d9"/><rect width="140" height="10" transform="translate(575 1657)" fill="#d9d9d9"/><rect width="140" height="10" transform="translate(575 1482)" fill="#d9d9d9"/><rect width="140" height="10" transform="translate(575 1582)" fill="#d9d9d9"/></g><g transform="translate(320)"><rect width="140" height="90" transform="translate(575 1302)" fill="#d9d9d9"/><g transform="translate(626 1328)"><path d="M3.862-511.827a5.007,5.007,0,0,0-3.319,2.583c-.586,1.194-.548.045-.548,16.522S-.044-477.394.542-476.2A4.9,4.9,0,0,0,2.7-474.045c1.194.586.045.548,16.522.548s15.328.038,16.522-.548A4.9,4.9,0,0,0,37.9-476.2c.586-1.194.548-.045.548-16.522s.038-15.328-.548-16.522a4.9,4.9,0,0,0-2.155-2.155c-1.194-.586-.038-.548-16.574-.541C6.46-511.932,4.312-511.917,3.862-511.827Zm30.716,2.381a2.893,2.893,0,0,1,1.367,1.359l.21.458.023,6.909c.008,3.8.008,7.548,0,8.336l-.023,1.427-2.591-3.192c-1.427-1.757-2.719-3.334-2.876-3.507a2.989,2.989,0,0,0-3.432-.736c-.458.2-.789.511-5.88,5.587-4.206,4.2-5.407,5.362-5.49,5.3-.06-.045-1-.811-2.08-1.712a26.775,26.775,0,0,0-2.388-1.84,2.131,2.131,0,0,0-1.209-.2c-1.292,0-.834-.323-7.307,5.2l-.653.563.015-11.07.023-11.062.21-.451a2.776,2.776,0,0,1,1.885-1.54c.165-.03,6.932-.053,15.027-.045l14.719.008ZM28.81-496.3c.09.053,1.787,2.1,3.778,4.544l3.612,4.446-.023,4.754-.023,4.746-.21.451A2.893,2.893,0,0,1,34.585-476l-.458.21H4.312L3.854-476a2.893,2.893,0,0,1-1.359-1.367l-.21-.451-.023-2.366-.015-2.366,3.274-2.779c4.716-4,4.363-3.717,4.619-3.717a.924.924,0,0,1,.375.083c.083.045,1.187.939,2.456,2s2.411,1.983,2.531,2.058a1.188,1.188,0,0,0,1.059.023c.143-.068,2.674-2.561,5.783-5.685,3.049-3.064,5.625-5.632,5.73-5.7A.688.688,0,0,1,28.81-496.3Z" transform="translate(0.006 511.943)" fill="#b2b2b2"/><path d="M93.413-448.671a5.368,5.368,0,0,0-2.929,1.577,5.11,5.11,0,0,0-1.585,3.763,7.858,7.858,0,0,0,.075,1.089,5.467,5.467,0,0,0,4.078,4.258,6.244,6.244,0,0,0,2.914-.09,5.35,5.35,0,0,0,3.229-2.816,4.435,4.435,0,0,0,.563-2.4,4.911,4.911,0,0,0-.173-1.427,5.494,5.494,0,0,0-3.732-3.793A7.078,7.078,0,0,0,93.413-448.671Zm1.9,2.373a3.21,3.21,0,0,1,2.148,3.492,3.158,3.158,0,0,1-2.929,2.689,3.139,3.139,0,0,1-3.094-1.862,3.285,3.285,0,0,1-.165-2.185,3.233,3.233,0,0,1,1.667-1.96A3.17,3.17,0,0,1,95.313-446.3Z" transform="translate(-82.223 453.466)" fill="#b2b2b2"/></g><rect width="140" height="10" transform="translate(575 1407)" fill="#d9d9d9"/><rect width="140" height="10" transform="translate(575 1507)" fill="#d9d9d9"/><rect width="140" height="10" transform="translate(575 1607)" fill="#d9d9d9"/><rect width="140" height="10" transform="translate(575 1432)" fill="#d9d9d9"/><rect width="140" height="10" transform="translate(575 1532)" fill="#d9d9d9"/><rect width="140" height="10" transform="translate(575 1632)" fill="#d9d9d9"/><rect width="140" height="10" transform="translate(575 1457)" fill="#d9d9d9"/><rect width="140" height="10" transform="translate(575 1557)" fill="#d9d9d9"/><rect width="140" height="10" transform="translate(575 1657)" fill="#d9d9d9"/><rect width="140" height="10" transform="translate(575 1482)" fill="#d9d9d9"/><rect width="140" height="10" transform="translate(575 1582)" fill="#d9d9d9"/></g></g></svg>