<svg xmlns="http://www.w3.org/2000/svg" width="54.25" height="54.862" viewBox="0 0 54.25 54.862"><g transform="translate(-935.875 -1656.872)"><rect width="54" height="54" transform="translate(936 1657)" fill="none"/><g transform="translate(-8 49)"><path d="M247.829-494.706a18.814,18.814,0,0,0-14.458,13.68,15.649,15.649,0,0,0-.309,5.257c.96,6.675,7.346,10.321,14.586,8.306A19.223,19.223,0,0,0,260.3-479.971a14.471,14.471,0,0,0,.235-7.272,10.091,10.091,0,0,0-8.135-7.464A18.241,18.241,0,0,0,247.829-494.706Zm1.237,1.066.256.277-2.26,2.26-2.26,2.26-1.3-1.311c-1.525-1.525-1.557-1.311.288-2.207A16.3,16.3,0,0,1,248.7-493.9C248.767-493.906,248.927-493.789,249.065-493.64Zm4.222.117a10.534,10.534,0,0,1,1.567.586,8.912,8.912,0,0,1,1.994,1.354,12.149,12.149,0,0,1-1.066,1.141l-1.066,1.066-2.026-2.026-2.015-2.015.235-.256c.213-.235.288-.245.853-.181A9.474,9.474,0,0,1,253.288-493.523Zm-1.525,7.1-2.271,2.271-1.973-1.973a27.5,27.5,0,0,1-1.973-2.079c0-.053.992-1.1,2.207-2.314l2.218-2.218L252-490.708l2.026,2.026Zm-9.02-3.2a12.775,12.775,0,0,1,1.311,1.418,31.6,31.6,0,0,1-2.218,2.324l-2.207,2.207-1.365-1.365a18.006,18.006,0,0,1-1.354-1.439,15.371,15.371,0,0,1,2.026-2.42,14.772,14.772,0,0,1,2.4-2.015A11.829,11.829,0,0,1,242.743-489.62Zm15.429-.522a10.073,10.073,0,0,1,1.727,4.5c.053.469.032.565-.192.768l-.256.235-2.015-2.015-2.026-2.026,1.066-1.066a12.147,12.147,0,0,1,1.141-1.066A3.793,3.793,0,0,1,258.171-490.143Zm-1.407,4.2,2,2-2.207,2.207a31.6,31.6,0,0,1-2.324,2.218,27.49,27.49,0,0,1-2.079-1.973l-1.973-1.973,2.239-2.239c1.226-1.237,2.26-2.239,2.292-2.239S255.665-487.04,256.764-485.942Zm-9.905.437,1.994,1.994-2.271,2.271-2.26,2.26L242.295-481l-2.026-2.026,2.239-2.239c1.226-1.237,2.26-2.239,2.292-2.239S245.76-486.613,246.858-485.5ZM236.7-480.738l-2.239,2.239-.267-.267c-.256-.256-.256-.288-.149-.96a17.13,17.13,0,0,1,1.845-5.161l.405-.725,1.322,1.311,1.322,1.322Zm23-2.271c.213.235.224.277.085,1.077a16.077,16.077,0,0,1-.97,3.305,12.061,12.061,0,0,1-1.3,2.42,17.106,17.106,0,0,1-1.354-1.279l-1.279-1.28L257.116-481c1.226-1.237,2.26-2.239,2.3-2.239A.946.946,0,0,1,259.7-483.009Zm-8.359,6.5-2.271,2.271-2.026-2.026-2.026-2.026,2.26-2.26,2.271-2.271,2.026,2.026,2.026,2.026Zm-9.7-3.774,1.994,1.994-2.239,2.239-2.239,2.239-2.026-2.026-2.026-2.026,2.207-2.207c1.216-1.226,2.239-2.218,2.271-2.218S240.535-481.389,241.634-480.28Zm15.322,4.937a14.341,14.341,0,0,1-1.941,2.356,15.74,15.74,0,0,1-2.506,2.111,18.013,18.013,0,0,1-1.439-1.354l-1.365-1.365,2.26-2.26,2.271-2.271,1.354,1.354A17.982,17.982,0,0,1,256.956-475.343ZM246.133-471.3l-2.239,2.239-2.026-2.026-2.026-2.026,2.239-2.239,2.239-2.239,2.026,2.026,2.026,2.026Zm-8.743-.746a12.151,12.151,0,0,1-1.141,1.066,8.912,8.912,0,0,1-1.354-1.994,11.587,11.587,0,0,1-.917-3.049c-.075-.554-.053-.65.171-.885l.245-.267,2.026,2.037,2.037,2.026Zm14.053,1.9c-.107.085-.768.427-1.471.768a15.914,15.914,0,0,1-4.148,1.375c-.725.128-.746.128-1.013-.139l-.277-.277,2.239-2.239,2.239-2.239,1.311,1.311C251.507-470.406,251.614-470.278,251.443-470.151Zm-10.236-.213,2,2-.277.256c-.256.245-.288.245-1.12.117a10.085,10.085,0,0,1-2.879-.917,8.939,8.939,0,0,1-1.919-1.311,25.4,25.4,0,0,1,2.132-2.154C239.181-472.368,240.109-471.462,241.207-470.364Z" transform="translate(735.311 2104.631)" fill="#333" stroke="#333" stroke-width="0.25"/><path d="M69.306-138.377c-1.45,1.45-2.666,2.719-2.687,2.826a.58.58,0,0,0,.437.629c.171,0,5.374-5.1,5.576-5.47a.418.418,0,0,0-.405-.608C71.993-141,71.428-140.488,69.306-138.377Z" transform="translate(884.492 1788.047)" fill="#333" stroke="#333" stroke-width="0.25"/><path d="M40.4-84.243A14.529,14.529,0,0,0,38-81.758c0,.341.139.5.416.5.224,0,.544-.267,1.493-1.216.768-.778,1.184-1.29,1.162-1.407A.537.537,0,0,0,40.4-84.243Z" transform="translate(910.052 1737.262)" fill="#333" stroke="#333" stroke-width="0.25"/><rect width="54" height="54" transform="translate(944 1608)" fill="none"/><path d="M40.834-511.534a18.959,18.959,0,0,0-4.938,1.171A21.132,21.132,0,0,0,23.1-495.3a17.476,17.476,0,0,0-.063,5.539,12.143,12.143,0,0,0,2.152,4.906,7.356,7.356,0,0,1,.559.791c0,.032-2.195,2.247-4.885,4.938l-4.875,4.875-.58-.58a2.079,2.079,0,0,0-.791-.58,7.209,7.209,0,0,0-1.2.369l-1,.359-6.2,6.2C2.8-465.066,0-462.2,0-462.111a46.04,46.04,0,0,0,4.537,4.537c.084,0,2.954-2.8,6.362-6.2l6.2-6.2.359-1a7.212,7.212,0,0,0,.369-1.2,2.3,2.3,0,0,0-.58-.791l-.58-.58,4.906-4.906,4.9-4.9.3.232a12.478,12.478,0,0,0,5.328,2.522,18.99,18.99,0,0,0,5.413-.011,21,21,0,0,0,13.348-9.137c4.252-6.468,4.178-14-.158-18.412a11.47,11.47,0,0,0-8.125-3.366C41.826-511.555,41.034-511.555,40.834-511.534Zm3.229,1.045a10.187,10.187,0,0,1,7.9,5.782,11.639,11.639,0,0,1,1.076,5.761c-.443,8.483-8.082,16.534-16.65,17.536a11.431,11.431,0,0,1-9.412-2.849,10.814,10.814,0,0,1-2.891-5.022,9.429,9.429,0,0,1-.285-2.954,12.628,12.628,0,0,1,.781-5.012,20.271,20.271,0,0,1,6.89-9.528,18.337,18.337,0,0,1,8.2-3.651c.433-.063.907-.137,1.055-.158A16.37,16.37,0,0,1,44.063-510.49ZM16.692-471.6a1.362,1.362,0,0,1-.232.517c-.095,0-3-2.944-2.954-2.986a5.489,5.489,0,0,1,.528-.211l.475-.158,1.171,1.161,1.171,1.161Zm-2.4-.222,1.688,1.688L10.256-464.4l-5.719,5.719L2.828-460.4l-1.72-1.709,5.7-5.7c3.134-3.134,5.719-5.7,5.751-5.7S13.369-472.747,14.3-471.819Z" transform="translate(944 2119.55)" fill="#333" stroke="#333" stroke-width="0.25"/><g transform="translate(47 -119)"><path d="M339.195-163.512a8.709,8.709,0,0,0-6.5,5.563,8.644,8.644,0,0,0,3.453,10.206,7.811,7.811,0,0,0,4.675,1.342,8.188,8.188,0,0,0,6.1-2.5,8.188,8.188,0,0,0,2.5-6.1,7.811,7.811,0,0,0-1.342-4.675,8.707,8.707,0,0,0-5.206-3.734A11.049,11.049,0,0,0,339.195-163.512Zm3.95,1.082a7.306,7.306,0,0,1,3.139,1.959,7.45,7.45,0,0,1,1.97,3.139,5.834,5.834,0,0,1,.281,2.327,5.834,5.834,0,0,1-.281,2.327,7.45,7.45,0,0,1-1.97,3.139,7.451,7.451,0,0,1-3.139,1.97,5.835,5.835,0,0,1-2.327.281,5.835,5.835,0,0,1-2.327-.281,7.45,7.45,0,0,1-3.139-1.97,7.45,7.45,0,0,1-1.97-3.139,5.834,5.834,0,0,1-.281-2.327,5.605,5.605,0,0,1,.271-2.294,7.476,7.476,0,0,1,1.97-3.182,7.693,7.693,0,0,1,4.123-2.208A9.667,9.667,0,0,1,343.145-162.43Z" transform="translate(591.369 1927.885)" fill="#333" stroke="#333" stroke-width="0.5"/><path d="M364.169-123.766c-.249.249-.13.509.39.9a7.444,7.444,0,0,0,4.675,1.5,7.41,7.41,0,0,0,4.686-1.5c.509-.39.617-.66.379-.9-.206-.206-.4-.152-.952.249a7.482,7.482,0,0,1-4.145,1.353,7.5,7.5,0,0,1-4.08-1.353C364.57-123.917,364.375-123.971,364.169-123.766Z" transform="translate(562.953 1892.548)" fill="#333" stroke="#333" stroke-width="0.5"/><path d="M367.93-67.514a8.066,8.066,0,0,0-3.3,1.418c-.574.422-.693.693-.444.942.206.206.4.152.952-.249a7.018,7.018,0,0,1,8.225,0c.552.4.747.455.952.249.249-.249.13-.519-.433-.942a7.406,7.406,0,0,0-4.307-1.472A10.129,10.129,0,0,0,367.93-67.514Z" transform="translate(562.937 1842.234)" fill="#333" stroke="#333" stroke-width="0.5"/></g></g></g></svg>